<svg width="673" height="709" viewBox="0 0 673 709" fill="none" xmlns="http://www.w3.org/2000/svg">
<path d="M406.458 255.853H621.567C632.308 255.853 641.009 247.152 641.009 236.411V176.563C641.009 165.822 632.308 157.121 621.567 157.121H406.458C395.717 157.121 387.016 165.822 387.016 176.563V236.411C387.016 247.152 395.717 255.853 406.458 255.853Z" fill="#ACC1EA"/>
<path d="M397.571 247.562H612.68C623.421 247.562 632.123 238.861 632.123 228.12V168.272C632.123 157.531 623.421 148.83 612.68 148.83H397.571C386.83 148.83 378.129 157.531 378.129 168.272V228.12C378.129 238.849 386.842 247.562 397.571 247.562Z" fill="white"/>
<path d="M466.542 468.283H67.497C56.7561 468.283 48.0547 459.581 48.0547 448.84V329.833C48.0547 319.092 56.7561 310.39 67.497 310.39H466.542C477.283 310.39 485.984 319.092 485.984 329.833V448.84C485.984 459.569 477.283 468.283 466.542 468.283Z" fill="#ACC1EA"/>
<path d="M454.138 457.18H55.0927C44.3518 457.18 35.6504 448.478 35.6504 437.737V318.73C35.6504 307.989 44.3518 299.287 55.0927 299.287H454.138C464.879 299.287 473.58 307.989 473.58 318.73V437.737C473.58 448.478 464.879 457.18 454.138 457.18Z" fill="white"/>
<path d="M148.516 200.736C148.516 200.181 148.903 199.71 149.434 199.614L158.461 198.021C159.076 197.912 159.487 197.333 159.378 196.717L157.001 183.261C156.892 182.645 156.313 182.235 155.697 182.344L146.694 183.937C146.151 184.033 145.632 183.719 145.439 183.201C143.894 178.952 141.794 174.97 139.248 171.325C138.934 170.879 138.982 170.263 139.369 169.877L145.837 163.408C146.272 162.974 146.272 162.25 145.837 161.815L136.182 152.16C135.748 151.726 135.024 151.726 134.589 152.16L128.109 158.641C127.722 159.027 127.107 159.076 126.66 158.762C120.65 154.538 113.687 151.581 106.156 150.266C105.613 150.169 105.215 149.71 105.215 149.155V140.007C105.215 139.38 104.708 138.885 104.092 138.885H90.4307C89.8032 138.885 89.3084 139.392 89.3084 140.007V149.155C89.3084 149.71 88.9101 150.169 88.367 150.266C83.8775 151.05 79.5932 152.414 75.5985 154.284C75.1037 154.514 74.5124 154.369 74.1986 153.91L68.9488 146.416C68.5868 145.909 67.8868 145.788 67.3799 146.138L56.1924 153.971C55.6855 154.333 55.5648 155.033 55.9148 155.54L61.1646 163.046C61.4784 163.493 61.4181 164.108 61.0319 164.494C57.8699 167.656 55.1304 171.217 52.8736 175.115C52.596 175.585 52.0288 175.803 51.5098 175.622L42.905 172.496C42.3257 172.279 41.674 172.58 41.4568 173.172L36.7863 186C36.569 186.58 36.8707 187.231 37.4621 187.449L46.0669 190.574C46.5859 190.767 46.8755 191.286 46.791 191.83C46.2842 194.726 46.0187 197.695 46.0187 200.736C46.0187 202.245 46.0911 203.741 46.2118 205.213C46.26 205.757 45.91 206.263 45.3911 206.408L36.5449 208.774C35.9415 208.931 35.5915 209.558 35.7484 210.15L39.2844 223.34C39.4413 223.944 40.0689 224.294 40.6602 224.137L49.4944 221.771C50.0254 221.627 50.5685 221.892 50.8099 222.387C52.7167 226.478 55.1425 230.268 58.0148 233.683C58.3647 234.105 58.3768 234.709 58.0268 235.131L52.1374 242.143C51.7391 242.614 51.7995 243.326 52.2822 243.724L62.7456 252.498C63.2163 252.896 63.9283 252.836 64.3266 252.353L70.2039 245.341C70.5539 244.919 71.1573 244.822 71.6401 245.1C75.4779 247.32 79.6294 249.058 84.0103 250.229C84.5413 250.374 84.9034 250.869 84.8551 251.412L84.0586 260.523C84.0103 261.139 84.4568 261.694 85.0844 261.742L98.6856 262.937C99.3011 262.985 99.8562 262.539 99.9045 261.911L100.701 252.788C100.749 252.244 101.184 251.81 101.739 251.762C106.289 251.363 110.682 250.386 114.809 248.877C115.328 248.684 115.895 248.889 116.173 249.372L120.747 257.289C121.061 257.832 121.749 258.013 122.28 257.699L134.107 250.869C134.65 250.555 134.831 249.867 134.517 249.336L129.943 241.407C129.665 240.936 129.786 240.333 130.196 239.983C133.624 237.098 136.677 233.792 139.248 230.111C139.562 229.664 140.153 229.495 140.648 229.725L148.939 233.587C149.506 233.852 150.17 233.611 150.435 233.043L156.204 220.661C156.47 220.094 156.228 219.43 155.661 219.165L147.37 215.303C146.875 215.073 146.622 214.518 146.766 213.987C147.913 209.775 148.516 205.322 148.516 200.736ZM127.988 198.733C129.159 217.318 113.844 232.633 95.2702 231.45C79.9432 230.485 67.5126 218.054 66.5472 202.727C65.3765 184.142 80.6915 168.827 99.2649 170.01C114.592 170.975 127.022 183.418 127.988 198.733Z" fill="#ACC1EA"/>
<path d="M605.378 380.376C605.378 407.964 583.015 430.327 555.426 430.327C527.837 430.327 505.475 407.976 505.475 380.376C505.475 365.737 511.774 352.558 521.827 343.434C526.015 339.62 530.855 336.507 536.165 334.286C536.792 334.033 537.408 333.779 538.047 333.538C538.047 333.538 538.048 333.538 538.06 333.526C538.76 333.272 539.472 333.019 540.196 332.79C544.999 331.257 550.116 330.424 555.426 330.424C564.357 330.424 572.756 332.777 580.01 336.893C583.872 339.089 587.42 341.768 590.558 344.87C599.705 353.921 605.378 366.485 605.378 380.376Z" fill="#ACC1EA"/>
<path d="M508.191 210.813H496.75V240.9H508.191V210.813Z" fill="#F16667"/>
<path d="M491.789 227.07H480.348V240.9H491.789V227.07Z" fill="#FCD941"/>
<path d="M459.292 235.252H447.852V240.9H459.292V235.252Z" fill="#FCD941"/>
<path d="M476.246 213.673H464.805V240.9H476.246V213.673Z" fill="#F16667"/>
<path d="M508.732 162.552H400.513C399.85 162.552 399.307 162.009 399.307 161.345C399.307 160.681 399.85 160.138 400.513 160.138H508.732C509.396 160.138 509.939 160.681 509.939 161.345C509.939 162.009 509.408 162.552 508.732 162.552Z" fill="#FCD941"/>
<path d="M508.739 174.33H445.705C445.041 174.33 444.498 173.787 444.498 173.123C444.498 172.46 445.041 171.917 445.705 171.917H508.739C509.402 171.917 509.946 172.46 509.946 173.123C509.946 173.787 509.414 174.33 508.739 174.33Z" fill="#F16667"/>
<path d="M394.77 421.819C384.982 421.819 377.029 413.866 377.029 404.078C377.029 394.291 384.982 386.337 394.77 386.337C404.558 386.337 412.511 394.291 412.511 404.078C412.511 413.866 404.546 421.819 394.77 421.819ZM394.77 387.544C385.658 387.544 378.236 394.966 378.236 404.078C378.236 413.19 385.658 420.612 394.77 420.612C403.882 420.612 411.304 413.19 411.304 404.078C411.292 394.966 403.882 387.544 394.77 387.544Z" fill="#FCD941"/>
<path d="M440.581 417.825C440.581 433.164 428.138 445.606 412.799 445.606C397.581 445.606 385.211 433.357 385.03 418.175C385.018 418.054 385.018 417.945 385.018 417.825C385.018 404.923 393.828 394.062 405.763 390.948C408.008 390.357 410.374 390.043 412.799 390.043C428.138 390.043 440.581 402.486 440.581 417.825Z" fill="#FCD941"/>
<path d="M394.76 421.819C391.14 421.819 387.652 420.733 384.695 418.669C384.55 418.573 384.454 418.416 384.442 418.235C384.43 418.09 384.43 417.969 384.43 417.824C384.43 417.487 384.695 417.221 385.033 417.221C385.371 417.221 385.637 417.487 385.637 417.824C385.637 417.837 385.637 417.837 385.637 417.849C388.352 419.659 391.502 420.612 394.772 420.612C403.884 420.612 411.306 413.19 411.306 404.078C411.306 399.167 409.146 394.556 405.393 391.407C405.139 391.189 405.103 390.815 405.32 390.562C405.537 390.308 405.924 390.272 406.165 390.489C410.196 393.856 412.513 398.817 412.513 404.078C412.501 413.854 404.548 421.819 394.76 421.819Z" fill="white"/>
<path d="M454.134 457.783H55.0887C44.034 457.783 35.043 448.792 35.043 437.738V318.73C35.043 307.675 44.034 298.684 55.0887 298.684H454.134C465.189 298.684 474.18 307.675 474.18 318.73V437.738C474.18 448.792 465.189 457.783 454.134 457.783ZM55.0887 299.903C44.6978 299.903 36.2498 308.351 36.2498 318.742V437.75C36.2498 448.141 44.6978 456.589 55.0887 456.589H454.134C464.525 456.589 472.973 448.141 472.973 437.75V318.742C472.973 308.351 464.525 299.903 454.134 299.903H55.0887Z" fill="#5C72B7"/>
<path d="M612.682 248.166H397.573C386.518 248.166 377.527 239.175 377.527 228.12V168.272C377.527 157.218 386.518 148.227 397.573 148.227H612.682C623.737 148.227 632.728 157.218 632.728 168.272V228.12C632.728 239.175 623.737 248.166 612.682 248.166ZM397.573 149.433C387.182 149.433 378.734 157.881 378.734 168.272V228.12C378.734 238.511 387.182 246.959 397.573 246.959H612.682C623.073 246.959 631.521 238.511 631.521 228.12V168.272C631.521 157.881 623.073 149.433 612.682 149.433H397.573Z" fill="#5C72B7"/>
<path d="M440.583 359.292H326.705C325.377 359.292 324.291 358.206 324.291 356.879C324.291 355.551 325.377 354.465 326.705 354.465H440.583C441.911 354.465 442.997 355.551 442.997 356.879C442.997 358.206 441.911 359.292 440.583 359.292Z" fill="#FCD941"/>
<path d="M440.583 319.804H304.668C303.34 319.804 302.254 318.718 302.254 317.391C302.254 316.063 303.34 314.977 304.668 314.977H440.583C441.911 314.977 442.997 316.063 442.997 317.391C442.997 318.718 441.911 319.804 440.583 319.804Z" fill="#FCD941"/>
<path d="M60.2305 445.594V324.016C60.2305 320.359 63.1872 317.402 66.844 317.402H91.4034C95.0602 317.402 98.0169 320.359 98.0169 324.016V445.606H60.2305V445.594Z" fill="#FCD941"/>
<path d="M435.022 251.882C435.022 251.882 392.445 303.028 350.977 322C333.236 330.11 315.701 332.343 301.798 322.157C282.175 307.783 275.827 270.564 275.03 232.391C273.944 180.316 283.2 126.466 283.2 126.466C304.344 131.631 301.014 181.04 305.829 218.681C308.279 237.882 312.841 254.018 323.847 259.678C324.595 260.064 325.356 260.378 326.116 260.632C347.453 267.861 373.919 227.069 373.919 227.069L435.022 251.882Z" fill="#FCD941"/>
<path d="M111.145 445.594V388.112C111.145 384.455 114.101 381.498 117.758 381.498H142.317C145.974 381.498 148.931 384.455 148.931 388.112V445.594H111.145Z" fill="#F16667"/>
<path d="M350.974 322C333.234 330.11 315.698 332.343 301.795 322.157C282.172 307.783 275.824 270.564 275.027 232.391C277.719 223.388 282.812 213.456 286.854 213.685C289.28 213.818 297.173 216.038 305.826 218.681C308.276 237.882 312.838 254.018 323.844 259.678C324.593 260.064 325.353 260.378 326.113 260.632C319.403 285.794 335.044 315.567 350.974 322Z" fill="white"/>
<path d="M199.841 335.577H162.055V445.594H199.841V335.577Z" fill="white"/>
<path d="M212.971 445.594V363.48C212.971 359.823 215.927 356.866 219.584 356.866H244.144C247.8 356.866 250.757 359.823 250.757 363.48V445.594H212.971Z" fill="#FCD941"/>
<path d="M272.762 446.198H55.8905C55.5526 446.198 55.2871 445.932 55.2871 445.594C55.2871 445.256 55.5526 444.991 55.8905 444.991H272.762C273.099 444.991 273.365 445.256 273.365 445.594C273.365 445.932 273.087 446.198 272.762 446.198Z" fill="#FCD941"/>
<path d="M164.831 292.493C164.831 292.493 168.15 519.996 131.631 617.063H240.235C240.235 617.063 259.122 447.911 234.515 340.272H250.18C250.18 340.272 303.293 436.386 303.293 621.866H400.722C400.722 621.866 390.947 407.506 299.733 300.844L164.831 292.493Z" fill="#5C72B7"/>
<path d="M299.744 300.844C287.772 304.525 275.595 306.553 263.623 307.385C206.841 311.404 154.971 288.703 154.971 288.703L183.839 182.669L185.588 176.213C173.11 149.928 174.908 122.93 187.399 114.048C201.434 104.079 236.445 101.34 236.445 101.34L237.604 99.3364C238.871 97.1641 241.2 95.8245 243.722 95.8245H247.693L273.966 106.867L276.307 108.581C277.575 109.51 278.238 111.079 278.009 112.636L277.502 116.015C295.533 129.689 291.007 146.85 287.314 228.614L292.54 259.015L299.744 300.844Z" fill="#FCD941"/>
<path d="M299.742 300.844C287.77 304.525 275.593 306.553 263.621 307.385C205.958 269.189 183.836 182.67 183.836 182.67L185.586 176.213L292.537 259.015L299.742 300.844Z" fill="#F9B741"/>
<path d="M299.746 301.448C299.456 301.448 299.203 301.243 299.154 300.941L286.724 228.711C286.712 228.663 286.712 228.626 286.712 228.578C287.303 215.399 287.919 203.934 288.462 193.821C291.261 141.769 292.01 127.77 277.141 116.498C276.96 116.365 276.876 116.148 276.912 115.931L277.407 112.552C277.6 111.2 277.045 109.872 275.947 109.064L273.605 107.35C273.34 107.157 273.279 106.771 273.473 106.505C273.666 106.24 274.052 106.179 274.317 106.372L276.659 108.086C278.119 109.148 278.867 110.934 278.602 112.72L278.155 115.738C293.241 127.36 292.468 141.637 289.668 193.881C289.125 203.982 288.51 215.423 287.919 228.566L300.337 300.736C300.397 301.062 300.168 301.375 299.842 301.436C299.818 301.448 299.782 301.448 299.746 301.448Z" fill="white"/>
<path d="M252.136 55.4557C252.136 55.4557 250.543 48.0697 254.695 44.0751C258.846 40.0804 265.025 44.0751 265.025 44.0751C265.025 44.0751 269.515 29.9187 287.316 31.3669C305.129 32.8152 316.196 46.6095 314.374 57.3142C312.563 68.019 299.722 68.4655 299.722 68.4655L260.114 70.9154L252.136 55.4557Z" fill="#F16667"/>
<path d="M299.729 68.4776C284.668 69.6362 269.015 57.0246 269.015 57.0246L261.774 64.9295C261.774 64.9295 263.174 59.3417 258.129 56.047C253.085 52.7523 247.545 57.1936 247.062 63.3847C246.507 70.5534 254.086 74.5843 254.086 74.5843L245.783 102.137C245.783 102.137 255.04 113.481 272.756 111.031L276.268 98.8782C276.268 98.8782 299.729 101.968 299.729 68.4776Z" fill="#FFA578"/>
<path d="M276.269 98.8783C267.012 98.1542 260.121 89.8027 260.121 89.8027C260.121 89.8027 263.199 99.2765 273.964 106.856L276.269 98.8783Z" fill="#F16667"/>
<path d="M276.27 99.4813C276.258 99.4813 276.234 99.4813 276.221 99.4813C266.82 98.7451 259.941 90.5386 259.651 90.1886C259.434 89.9351 259.47 89.5489 259.736 89.3438C259.989 89.1265 260.375 89.1627 260.581 89.4282C260.653 89.5127 267.423 97.5865 276.318 98.2865C276.656 98.3107 276.897 98.6003 276.873 98.9382C276.849 99.2399 276.583 99.4813 276.27 99.4813Z" fill="#F16667"/>
<path d="M257.936 66.2812C257.611 66.2812 257.345 66.0157 257.333 65.6898C257.273 63.1554 256.657 61.4658 255.547 60.7779C254.183 59.9452 252.409 60.7659 252.397 60.7779C252.095 60.9227 251.733 60.79 251.588 60.5003C251.444 60.1986 251.564 59.8366 251.866 59.6918C251.963 59.6435 254.244 58.5694 256.162 59.74C257.671 60.6572 258.467 62.6485 258.528 65.6656C258.54 66.0036 258.274 66.2691 257.936 66.2812C257.949 66.2812 257.949 66.2812 257.936 66.2812Z" fill="#F16667"/>
<path d="M252.13 65.5464C252.009 65.5464 251.9 65.5102 251.792 65.4498C251.514 65.2687 251.442 64.8945 251.623 64.6168C253.579 61.683 257.044 61.3571 257.188 61.345C257.514 61.3088 257.816 61.5623 257.84 61.8883C257.865 62.2142 257.623 62.5161 257.297 62.5402C257.261 62.5402 254.255 62.842 252.625 65.2808C252.516 65.4619 252.323 65.5464 252.13 65.5464Z" fill="#F16667"/>
<path d="M225.713 135.795C225.713 135.795 238.132 196.259 261.859 201.846C284.934 207.277 309.517 173.123 309.517 173.123L341.692 239.054C341.692 239.054 265.6 282.971 224.531 242.626C201.89 220.384 185.598 176.213 185.598 176.213L225.713 135.795Z" fill="#FCD941"/>
<path d="M234.744 166.329C234.744 166.329 208.989 173.087 199.854 207.422C199.854 207.422 215.277 236.411 230.266 247.562C230.266 247.562 240.428 255.865 252.074 257.651C252.074 257.651 239.402 221.204 261.861 201.846C261.861 201.846 253.245 201.05 243.891 186.423C238.509 176.213 234.744 166.329 234.744 166.329Z" fill="white"/>
<path d="M270.455 260.246C251.459 260.246 235.709 254.465 224.099 243.06C201.628 220.987 185.191 176.865 185.022 176.43C184.901 176.116 185.07 175.766 185.384 175.658C185.697 175.537 186.047 175.706 186.156 176.02C186.313 176.454 202.666 220.323 224.944 242.216C265.217 281.776 340.621 238.981 341.381 238.547C341.671 238.378 342.033 238.474 342.202 238.764C342.371 239.054 342.274 239.416 341.984 239.585C341.791 239.693 322.615 250.676 298.647 256.565C288.618 259.015 279.192 260.246 270.455 260.246Z" fill="white"/>
<path d="M267.037 203.041C265.263 203.041 263.489 202.848 261.715 202.426C237.892 196.814 225.63 138.39 225.123 135.904C225.051 135.578 225.268 135.264 225.594 135.192C225.92 135.12 226.234 135.337 226.306 135.663C226.427 136.266 238.918 195.812 261.993 201.243C284.416 206.529 308.782 173.099 309.024 172.761C309.217 172.496 309.591 172.423 309.868 172.628C310.134 172.822 310.194 173.196 310.001 173.473C309.06 174.777 288.459 203.041 267.037 203.041Z" fill="white"/>
<path d="M309.506 173.123L315.166 166.558C334.596 144.014 367.531 138.945 392.839 154.61L449.452 189.669C451.975 191.576 453.459 194.569 453.459 197.731H407.792L383.582 190.08C369.523 185.638 354.195 190.562 345.349 202.353L332.279 219.78L309.506 173.123Z" fill="#FFA578"/>
<path d="M438.664 197.731C438.326 197.731 438.061 197.466 438.061 197.128C438.061 193.869 436.311 190.816 433.499 189.175L386.625 161.803C386.335 161.634 386.238 161.26 386.407 160.983C386.576 160.693 386.95 160.597 387.228 160.766L434.102 188.137C437.288 189.995 439.267 193.447 439.267 197.128C439.267 197.454 438.99 197.731 438.664 197.731Z" fill="#F16667"/>
<path d="M416.375 198.334C416.037 198.334 415.771 198.069 415.771 197.731C415.771 194.666 414.323 191.757 411.885 189.947C403.365 183.599 379.831 173.389 379.59 173.292C379.288 173.16 379.143 172.81 379.276 172.496C379.409 172.194 379.771 172.049 380.072 172.182C381.05 172.604 403.98 182.549 412.609 188.981C415.349 191.021 416.978 194.291 416.978 197.731C416.978 198.069 416.712 198.334 416.375 198.334Z" fill="#F16667"/>
<path d="M373.916 227.069C384.947 201.798 407.913 201.846 407.913 201.846H515.866C515.866 201.846 523.215 214.458 506.682 214.458C494.42 214.458 452.892 221.747 432.219 225.513C424.833 226.864 418.678 231.945 415.975 238.945L414.237 243.422L373.916 227.069Z" fill="#FFA578"/>
<path d="M432.223 226.116C431.933 226.116 431.68 225.911 431.632 225.609C431.583 225.283 431.801 224.97 432.126 224.921L490.514 215.339C494.581 214.192 496.307 210.355 495.872 207.169C495.559 204.888 494.014 202.45 490.61 202.45C490.273 202.45 490.007 202.184 490.007 201.846C490.007 201.508 490.273 201.243 490.61 201.243C494.05 201.243 496.584 203.5 497.067 207C497.574 210.717 495.583 215.17 490.779 216.51L432.32 226.104C432.283 226.116 432.247 226.116 432.223 226.116Z" fill="#F16667"/>
<path d="M432.102 220.396C431.812 220.396 431.547 220.178 431.51 219.877C431.462 219.551 431.691 219.237 432.017 219.189L459.208 215.303C465.857 214.349 470.878 208.569 470.878 201.846C470.878 201.508 471.143 201.243 471.481 201.243C471.819 201.243 472.085 201.508 472.085 201.846C472.085 209.172 466.618 215.472 459.377 216.51L432.186 220.396C432.162 220.396 432.126 220.396 432.102 220.396Z" fill="#F16667"/>
<path d="M396.279 199.782C396.279 200.917 397.245 201.834 398.428 201.834H521.454C522.323 201.834 523.119 201.327 523.445 200.555C524.024 199.203 522.974 197.731 521.454 197.731H398.428C397.245 197.731 396.279 198.648 396.279 199.782Z" fill="#5C72B7"/>
<path d="M131.641 617.063C106.816 653.353 96.1353 675.246 104.982 677.249H254.619C263.67 676.296 256.188 652.521 240.245 617.063H131.641Z" fill="#F16667"/>
<path d="M303.314 621.866C303.314 621.866 289.773 641.924 293.369 677.249H473.576C473.576 670.092 469.823 663.454 463.692 659.761L400.743 621.866H303.314Z" fill="#F16667"/>
<path d="M206.392 657.77H155.68C151.733 657.77 148.065 656.008 145.603 652.919C143.141 649.841 142.236 645.859 143.117 642.021L148.837 616.93C148.909 616.605 149.235 616.399 149.561 616.472C149.887 616.544 150.092 616.87 150.02 617.196L144.299 642.286C143.503 645.774 144.323 649.37 146.556 652.17C148.789 654.97 152.12 656.563 155.692 656.563H206.404C212.45 656.563 217.446 652.026 218.038 646.003L220.838 617.003C220.874 616.665 221.164 616.436 221.501 616.46C221.827 616.496 222.081 616.786 222.045 617.123L219.245 646.124C218.581 652.762 213.066 657.77 206.392 657.77Z" fill="white"/>
<path d="M431.929 652.593C428.429 652.593 424.929 652.05 421.55 650.975L332.484 622.446C332.17 622.349 331.989 621.999 332.098 621.685C332.195 621.371 332.545 621.203 332.858 621.299L421.924 649.829C427.777 651.7 434.017 651.893 439.978 650.396L445.566 648.984C445.892 648.9 446.218 649.093 446.302 649.419C446.387 649.745 446.194 650.07 445.868 650.155L440.28 651.567C437.516 652.243 434.717 652.593 431.929 652.593Z" fill="white"/>
<path d="M245.351 550.531C245.085 550.531 244.844 550.362 244.771 550.096C244.675 549.77 244.868 549.444 245.182 549.348C246.908 548.853 248.634 548.321 250.361 547.766C250.675 547.669 251.013 547.838 251.121 548.164C251.218 548.478 251.049 548.816 250.735 548.925C248.997 549.48 247.258 550.012 245.52 550.507C245.459 550.519 245.411 550.531 245.351 550.531Z" fill="#FCD941"/>
<path d="M260.877 545.364C260.636 545.364 260.407 545.22 260.31 544.978C260.19 544.665 260.346 544.314 260.66 544.206C264.039 542.939 267.443 541.563 270.774 540.115C271.075 539.982 271.437 540.127 271.57 540.428C271.703 540.73 271.558 541.092 271.256 541.225C267.901 542.685 264.474 544.061 261.083 545.34C261.022 545.352 260.95 545.364 260.877 545.364ZM280.947 536.663C280.73 536.663 280.513 536.542 280.404 536.325C280.259 536.023 280.38 535.661 280.682 535.517C283.94 533.911 287.187 532.21 290.349 530.46C290.638 530.303 291.012 530.4 291.169 530.701C291.326 530.991 291.23 531.365 290.928 531.522C287.754 533.284 284.471 534.998 281.201 536.603C281.128 536.639 281.044 536.663 280.947 536.663ZM300.088 526.067C299.883 526.067 299.69 525.97 299.569 525.777C299.4 525.488 299.485 525.126 299.762 524.945C300.836 524.281 301.898 523.617 302.972 522.929C304.94 521.674 306.943 520.359 308.934 519.007C309.212 518.814 309.586 518.898 309.767 519.164C309.948 519.441 309.876 519.815 309.61 519.996C307.607 521.348 305.603 522.676 303.624 523.931C302.55 524.619 301.476 525.295 300.402 525.958C300.305 526.043 300.197 526.067 300.088 526.067ZM318.239 513.829C318.058 513.829 317.865 513.745 317.756 513.576C317.563 513.311 317.624 512.924 317.889 512.731C320.785 510.619 323.718 508.411 326.615 506.154C326.88 505.949 327.254 505.997 327.459 506.263C327.665 506.528 327.616 506.902 327.351 507.107C324.442 509.364 321.498 511.585 318.589 513.709C318.48 513.793 318.36 513.829 318.239 513.829ZM335.521 500.397C335.352 500.397 335.171 500.325 335.05 500.18C334.833 499.926 334.869 499.54 335.135 499.335C337.899 497.066 340.699 494.677 343.474 492.263C343.728 492.046 344.102 492.07 344.331 492.323C344.548 492.577 344.524 492.951 344.271 493.18C341.483 495.606 338.671 497.996 335.907 500.277C335.799 500.361 335.666 500.397 335.521 500.397ZM352.043 486.036C351.874 486.036 351.717 485.975 351.596 485.843C351.367 485.601 351.391 485.215 351.633 484.986C354.288 482.56 356.967 480.05 359.598 477.527C359.839 477.298 360.225 477.31 360.455 477.551C360.684 477.793 360.672 478.179 360.43 478.408C357.787 480.931 355.096 483.453 352.441 485.879C352.333 485.975 352.188 486.036 352.043 486.036ZM367.841 470.926C367.684 470.926 367.527 470.866 367.418 470.745C367.189 470.504 367.189 470.129 367.418 469.888C369.965 467.354 372.547 464.723 375.082 462.092C375.311 461.85 375.697 461.85 375.939 462.08C376.18 462.309 376.18 462.695 375.951 462.937C373.404 465.58 370.821 468.198 368.275 470.745C368.154 470.866 367.997 470.926 367.841 470.926ZM383.047 455.177C382.902 455.177 382.757 455.128 382.637 455.02C382.395 454.79 382.383 454.416 382.6 454.163C385.05 451.532 387.536 448.816 389.986 446.089C390.216 445.836 390.59 445.823 390.843 446.041C391.097 446.258 391.109 446.644 390.891 446.898C388.429 449.637 385.931 452.365 383.493 454.995C383.373 455.104 383.216 455.177 383.047 455.177ZM397.722 438.872C397.577 438.872 397.445 438.824 397.324 438.727C397.07 438.51 397.046 438.124 397.264 437.87C399.665 435.107 402.043 432.343 404.384 429.567C404.601 429.314 404.975 429.29 405.241 429.495C405.494 429.712 405.53 430.086 405.313 430.352C402.96 433.127 400.582 435.903 398.181 438.667C398.048 438.8 397.891 438.872 397.722 438.872ZM411.854 422.145C411.722 422.145 411.589 422.097 411.468 422.012C411.215 421.795 411.179 421.421 411.384 421.167C413.713 418.331 416.006 415.495 418.275 412.659C418.48 412.406 418.866 412.357 419.12 412.563C419.373 412.768 419.421 413.154 419.216 413.407C416.947 416.244 414.654 419.08 412.325 421.928C412.204 422.073 412.035 422.145 411.854 422.145ZM425.528 405.044C425.395 405.044 425.262 405.008 425.154 404.911C424.888 404.706 424.84 404.332 425.045 404.066C427.302 401.158 429.523 398.274 431.707 395.389C431.912 395.124 432.286 395.075 432.552 395.268C432.817 395.474 432.866 395.848 432.673 396.113C430.488 398.998 428.256 401.894 425.999 404.803C425.878 404.959 425.709 405.044 425.528 405.044ZM438.767 387.593C438.647 387.593 438.514 387.557 438.405 387.472C438.14 387.267 438.079 386.893 438.284 386.627C440.481 383.659 442.629 380.714 444.753 377.793C444.946 377.528 445.32 377.467 445.598 377.661C445.863 377.854 445.924 378.228 445.731 378.505C443.619 381.426 441.458 384.383 439.262 387.352C439.129 387.508 438.948 387.593 438.767 387.593ZM451.596 369.84C451.475 369.84 451.355 369.804 451.246 369.732C450.968 369.538 450.908 369.164 451.101 368.887C453.237 365.858 455.325 362.865 457.365 359.908C457.558 359.63 457.932 359.558 458.21 359.751C458.487 359.944 458.547 360.318 458.366 360.596C456.327 363.552 454.239 366.545 452.091 369.575C451.97 369.756 451.789 369.84 451.596 369.84ZM464.051 351.822C463.93 351.822 463.821 351.786 463.713 351.713C463.435 351.532 463.363 351.158 463.556 350.881C465.644 347.791 467.671 344.75 469.638 341.781C469.819 341.503 470.194 341.419 470.471 341.612C470.749 341.793 470.821 342.167 470.64 342.445C468.673 345.414 466.645 348.455 464.558 351.556C464.437 351.725 464.244 351.822 464.051 351.822ZM476.119 333.55C476.011 333.55 475.89 333.514 475.793 333.454C475.516 333.273 475.431 332.898 475.612 332.621C477.664 329.447 479.631 326.369 481.502 323.401C481.683 323.123 482.057 323.039 482.334 323.207C482.612 323.389 482.697 323.763 482.528 324.04C480.645 327.009 478.678 330.099 476.626 333.273C476.517 333.454 476.324 333.55 476.119 333.55Z" fill="#FCD941"/>
<path d="M487.772 315.136C487.663 315.136 487.555 315.111 487.458 315.051C487.168 314.87 487.084 314.508 487.265 314.218C488.243 312.637 489.185 311.091 490.102 309.594C490.271 309.304 490.645 309.22 490.935 309.389C491.225 309.558 491.31 309.932 491.141 310.222C490.223 311.719 489.281 313.264 488.303 314.846C488.171 315.027 487.977 315.136 487.772 315.136Z" fill="#FCD941"/>
<path d="M427.932 401.955C427.799 401.955 427.679 401.919 427.558 401.834C427.292 401.629 427.244 401.255 427.449 400.99C428.56 399.553 429.658 398.117 430.745 396.68C430.95 396.415 431.324 396.366 431.59 396.572C431.855 396.777 431.904 397.151 431.698 397.417C430.612 398.853 429.501 400.289 428.391 401.726C428.294 401.871 428.113 401.955 427.932 401.955Z" fill="white"/>
<path d="M405.535 429.76C405.402 429.76 405.257 429.712 405.149 429.615C404.895 429.398 404.859 429.024 405.076 428.758C406.995 426.477 408.902 424.184 410.785 421.903C411.002 421.65 411.376 421.614 411.629 421.819C411.883 422.036 411.919 422.41 411.714 422.664C409.831 424.957 407.924 427.25 405.993 429.531C405.873 429.687 405.704 429.76 405.535 429.76ZM416.879 415.978C416.746 415.978 416.614 415.929 416.505 415.845C416.252 415.64 416.203 415.254 416.409 415C418.279 412.671 420.138 410.342 421.972 408.012C422.177 407.747 422.563 407.711 422.817 407.916C423.082 408.121 423.119 408.507 422.913 408.761C421.079 411.09 419.22 413.419 417.35 415.748C417.229 415.905 417.06 415.978 416.879 415.978Z" fill="white"/>
<path d="M396.159 440.672C396.014 440.672 395.882 440.624 395.761 440.527C395.507 440.31 395.483 439.924 395.701 439.67C396.896 438.306 398.079 436.942 399.262 435.577C399.479 435.324 399.866 435.3 400.119 435.517C400.373 435.734 400.397 436.121 400.18 436.374C398.996 437.738 397.813 439.115 396.606 440.479C396.497 440.6 396.328 440.672 396.159 440.672Z" fill="white"/>
<path d="M161.32 333.757C161.188 333.757 161.055 333.709 160.934 333.625C160.681 333.407 160.644 333.033 160.85 332.779C161.984 331.391 163.143 329.991 164.314 328.59C164.532 328.337 164.906 328.3 165.16 328.518C165.413 328.735 165.449 329.109 165.232 329.363C164.061 330.763 162.902 332.152 161.767 333.54C161.671 333.685 161.501 333.757 161.32 333.757Z" fill="#FCD941"/>
<path d="M133.861 544.266C133.764 544.266 133.656 544.242 133.571 544.194C130.289 542.359 127.163 540.32 124.242 538.148C123.977 537.942 123.917 537.568 124.122 537.303C124.327 537.037 124.701 536.977 124.967 537.182C127.839 539.318 130.928 541.334 134.163 543.144C134.452 543.301 134.561 543.675 134.392 543.965C134.271 544.146 134.066 544.266 133.861 544.266ZM116.253 531.051C116.096 531.051 115.939 530.991 115.831 530.87C113.188 528.239 110.75 525.403 108.565 522.446C108.372 522.181 108.421 521.795 108.698 521.602C108.964 521.396 109.338 521.457 109.543 521.734C111.691 524.643 114.093 527.431 116.688 530.013C116.929 530.255 116.929 530.629 116.688 530.87C116.555 530.991 116.398 531.051 116.253 531.051ZM103.207 513.335C102.99 513.335 102.785 513.214 102.676 513.009C100.986 509.75 99.5141 506.311 98.3072 502.787C98.1986 502.473 98.3676 502.135 98.6814 502.027C98.9952 501.918 99.3451 502.087 99.4417 502.401C100.624 505.876 102.073 509.256 103.738 512.466C103.895 512.755 103.774 513.13 103.485 513.274C103.4 513.311 103.304 513.335 103.207 513.335ZM96.0504 492.529C95.7608 492.529 95.5194 492.323 95.4591 492.034C94.7833 488.486 94.3126 484.769 94.0712 481.015C94.0471 480.677 94.3005 480.4 94.6384 480.376C94.9643 480.339 95.2539 480.605 95.2781 480.943C95.5195 484.648 95.978 488.317 96.6418 491.817C96.7021 492.142 96.4849 492.456 96.1591 492.517C96.1349 492.529 96.0867 492.529 96.0504 492.529ZM94.5902 470.54C94.5781 470.54 94.566 470.54 94.566 470.54C94.2281 470.528 93.9747 470.238 93.9867 469.912C94.1557 466.328 94.5057 462.611 95.0367 458.87C95.085 458.544 95.3867 458.314 95.7125 458.363C96.0384 458.411 96.2677 458.713 96.2315 459.051C95.7125 462.756 95.3626 466.424 95.1936 469.985C95.1815 470.286 94.916 470.54 94.5902 470.54ZM97.6314 448.696C97.5831 448.696 97.547 448.696 97.4987 448.684C97.1728 448.611 96.9677 448.285 97.0401 447.96C97.8366 444.46 98.7779 440.851 99.8641 437.243C99.9606 436.929 100.286 436.736 100.612 436.844C100.926 436.941 101.107 437.279 101.011 437.593C99.9365 441.177 98.9952 444.749 98.2107 448.225C98.1624 448.515 97.909 448.696 97.6314 448.696ZM103.955 427.552C103.883 427.552 103.81 427.54 103.75 427.516C103.436 427.407 103.279 427.057 103.388 426.743C104.631 423.364 106.019 419.9 107.491 416.461C107.624 416.159 107.974 416.014 108.288 416.147C108.59 416.28 108.734 416.63 108.602 416.944C107.129 420.371 105.754 423.81 104.523 427.166C104.426 427.407 104.197 427.552 103.955 427.552ZM112.645 407.253C112.56 407.253 112.464 407.228 112.379 407.192C112.077 407.047 111.957 406.685 112.102 406.384C113.67 403.149 115.372 399.83 117.146 396.536C117.303 396.246 117.677 396.137 117.967 396.294C118.256 396.451 118.365 396.813 118.208 397.115C116.446 400.398 114.757 403.704 113.188 406.927C113.091 407.132 112.874 407.253 112.645 407.253ZM123.084 387.798C122.975 387.798 122.879 387.774 122.782 387.714C122.493 387.545 122.396 387.171 122.565 386.893C124.387 383.779 126.318 380.605 128.322 377.443C128.503 377.166 128.877 377.081 129.154 377.25C129.432 377.431 129.516 377.805 129.347 378.083C127.356 381.233 125.425 384.407 123.615 387.496C123.494 387.689 123.289 387.798 123.084 387.798ZM134.863 369.116C134.742 369.116 134.633 369.08 134.525 369.019C134.247 368.838 134.175 368.464 134.356 368.187C136.371 365.206 138.483 362.14 140.656 359.099C140.849 358.834 141.223 358.761 141.5 358.954C141.778 359.147 141.838 359.522 141.645 359.799C139.485 362.84 137.361 365.882 135.358 368.863C135.249 369.019 135.056 369.116 134.863 369.116ZM147.667 351.122C147.547 351.122 147.414 351.086 147.305 351.001C147.04 350.796 146.98 350.422 147.185 350.156C149.357 347.26 151.626 344.303 153.919 341.395C154.124 341.129 154.498 341.081 154.764 341.298C155.029 341.503 155.065 341.877 154.86 342.143C152.567 345.051 150.31 347.996 148.138 350.893C148.042 351.037 147.861 351.122 147.667 351.122Z" fill="#FCD941"/>
<path d="M148.933 551.074C148.861 551.074 148.801 551.062 148.728 551.038C146.99 550.422 145.275 549.758 143.633 549.07C143.331 548.937 143.175 548.587 143.307 548.285C143.44 547.971 143.79 547.838 144.092 547.959C145.71 548.635 147.412 549.287 149.127 549.903C149.44 550.011 149.609 550.361 149.489 550.675C149.416 550.929 149.175 551.074 148.933 551.074Z" fill="#FCD941"/>
<path d="M473.387 291.456L489.571 298.045L518.088 261.224L473.387 291.456Z" fill="#F16667"/>
<path d="M489.572 298.045V312.648L495.739 301.279L518.09 261.224L489.572 298.045Z" fill="#FCD941"/>
<path d="M495.736 301.279L508.01 311.61L518.087 261.224L495.736 301.279Z" fill="#F16667"/>
<path d="M95.629 253.584C95.5807 253.584 95.5324 253.584 95.4721 253.572L81.8709 252.377C81.4123 252.341 80.9899 252.124 80.7003 251.762C80.3985 251.412 80.2658 250.953 80.302 250.494L81.0985 241.383C81.1227 241.129 80.9537 240.9 80.7003 240.828C76.3194 239.657 72.1075 237.919 68.1852 235.638C67.968 235.505 67.6784 235.554 67.5215 235.747L61.6441 242.759C61.3424 243.109 60.932 243.326 60.4734 243.374C60.0148 243.422 59.5683 243.278 59.2063 242.976L48.7428 234.202C48.3929 233.9 48.1757 233.49 48.1274 233.031C48.0912 232.573 48.2239 232.126 48.5256 231.764C48.7429 231.511 49.117 231.475 49.3704 231.692C49.6239 231.909 49.6601 232.283 49.4428 232.537C49.3584 232.645 49.3101 232.778 49.3221 232.923C49.3342 233.068 49.3946 233.188 49.5032 233.273L59.9666 242.047C60.0752 242.131 60.208 242.179 60.3528 242.167C60.4976 242.155 60.6183 242.095 60.7027 241.986L66.5801 234.974C67.1232 234.335 68.0404 234.166 68.7766 234.6C72.6143 236.821 76.7297 238.523 81.002 239.669C81.8226 239.886 82.3657 240.659 82.2812 241.491L81.4847 250.603C81.4726 250.748 81.5209 250.881 81.6054 250.989C81.6899 251.098 81.8226 251.158 81.9554 251.17L95.5566 252.365C95.7014 252.377 95.8342 252.329 95.9428 252.244C96.0514 252.16 96.1117 252.027 96.1238 251.894L96.9203 242.771C96.9927 241.938 97.6565 241.274 98.5013 241.202C102.93 240.816 107.275 239.862 111.427 238.354C112.223 238.064 113.104 238.378 113.527 239.114L118.101 247.031C118.173 247.152 118.282 247.236 118.414 247.272C118.547 247.308 118.692 247.284 118.813 247.224L130.64 240.393C130.76 240.321 130.845 240.212 130.881 240.079C130.917 239.947 130.893 239.802 130.833 239.681L126.259 231.752C125.836 231.028 126.005 230.099 126.657 229.556C130.06 226.708 133.065 223.425 135.6 219.804C136.083 219.116 136.988 218.863 137.748 219.225L146.039 223.099C146.305 223.22 146.618 223.111 146.739 222.846L152.508 210.463C152.629 210.198 152.52 209.896 152.254 209.763L143.963 205.901C143.203 205.551 142.817 204.695 143.034 203.886C144.169 199.626 144.748 195.209 144.748 190.767C144.748 189.911 145.351 189.199 146.172 189.054L155.187 187.461C155.32 187.437 155.44 187.364 155.525 187.243C155.609 187.123 155.634 186.99 155.609 186.857L153.232 173.413C153.184 173.135 152.918 172.942 152.629 172.991L143.625 174.584C142.793 174.728 141.984 174.258 141.694 173.461C140.186 169.31 138.122 165.363 135.576 161.731C135.093 161.043 135.165 160.101 135.757 159.51L142.226 153.041C142.431 152.836 142.431 152.51 142.226 152.305L132.571 142.65C132.366 142.445 132.04 142.445 131.834 142.65C131.593 142.88 131.219 142.88 130.978 142.65C130.748 142.409 130.748 142.035 130.978 141.794C131.653 141.118 132.752 141.118 133.428 141.794L143.082 151.448C143.758 152.124 143.758 153.222 143.082 153.898L136.614 160.367C136.433 160.548 136.408 160.826 136.565 161.043C139.172 164.76 141.284 168.803 142.829 173.063C142.913 173.304 143.167 173.449 143.408 173.413L152.411 171.82C153.353 171.651 154.246 172.279 154.415 173.22L156.792 186.676C156.961 187.618 156.334 188.511 155.392 188.68L146.377 190.273C146.136 190.321 145.955 190.538 145.955 190.792C145.955 195.354 145.363 199.879 144.193 204.236C144.132 204.489 144.241 204.743 144.47 204.851L152.761 208.713C153.63 209.112 154.004 210.149 153.594 211.006L147.825 223.389C147.427 224.258 146.389 224.632 145.532 224.221L137.241 220.347C137.012 220.239 136.734 220.323 136.589 220.528C133.995 224.233 130.905 227.588 127.43 230.509C127.236 230.678 127.176 230.956 127.309 231.173L131.883 239.102C132.112 239.5 132.172 239.971 132.052 240.417C131.931 240.864 131.641 241.238 131.243 241.467L119.416 248.298C119.018 248.527 118.547 248.588 118.101 248.467C117.654 248.346 117.28 248.057 117.051 247.658L112.477 239.741C112.356 239.524 112.078 239.428 111.837 239.512C107.589 241.057 103.136 242.047 98.6099 242.433C98.3565 242.457 98.1513 242.65 98.1272 242.903L97.3307 252.027C97.2944 252.486 97.0772 252.908 96.7151 253.198C96.4255 253.451 96.0393 253.584 95.629 253.584ZM54.8737 225.754C54.7409 225.754 54.5961 225.706 54.4875 225.609C54.234 225.392 54.1978 225.018 54.4151 224.764C54.5719 224.571 54.5719 224.282 54.403 224.089C51.4824 220.613 49.0325 216.775 47.1136 212.66C47.005 212.43 46.7395 212.31 46.5102 212.37L37.676 214.736C36.7588 214.977 35.8054 214.434 35.5641 213.517L32.028 200.326C31.7866 199.409 32.3297 198.455 33.2469 198.214L42.0931 195.848C42.3345 195.776 42.4914 195.559 42.4793 195.293C42.3466 193.785 42.2862 192.264 42.2862 190.767C42.2862 187.75 42.5517 184.721 43.0707 181.752C43.1189 181.499 42.9741 181.257 42.7448 181.173L34.14 178.047C33.2469 177.721 32.7762 176.732 33.1021 175.827L37.7726 162.998C38.0984 162.105 39.1001 161.634 39.9932 161.96L48.598 165.086C48.8394 165.17 49.1049 165.074 49.2256 164.844C51.4945 160.922 54.2702 157.302 57.4805 154.103C57.6615 153.922 57.6856 153.633 57.5408 153.428L52.291 145.921C52.0255 145.547 51.9289 145.088 52.0014 144.63C52.0738 144.171 52.3393 143.773 52.7134 143.507L63.9009 135.675C64.6854 135.132 65.7595 135.325 66.3146 136.097L71.5644 143.592C71.7092 143.797 71.9868 143.869 72.2161 143.761C76.3315 141.842 80.6761 140.466 85.1415 139.694C85.3949 139.645 85.588 139.428 85.588 139.187V130.039C85.588 129.085 86.3604 128.313 87.3138 128.313H100.975C101.929 128.313 102.701 129.085 102.701 130.039V139.187C102.701 139.44 102.882 139.657 103.136 139.694C110.642 141.009 117.618 143.905 123.881 148.298C124.099 148.443 124.376 148.419 124.557 148.25C124.799 148.009 125.173 148.009 125.414 148.25C125.655 148.492 125.655 148.866 125.414 149.107C124.823 149.698 123.881 149.783 123.193 149.288C117.075 145.004 110.256 142.168 102.93 140.888C102.098 140.744 101.494 140.032 101.494 139.187V130.039C101.494 129.749 101.265 129.52 100.975 129.52H87.3138C87.0242 129.52 86.7948 129.749 86.7948 130.039V139.187C86.7948 140.032 86.1914 140.744 85.3587 140.888C81.002 141.649 76.7538 142.988 72.735 144.871C71.9627 145.233 71.0575 144.992 70.5868 144.304L65.337 136.809C65.1681 136.568 64.8423 136.52 64.613 136.676L53.4254 144.509C53.3168 144.593 53.2323 144.714 53.2082 144.847C53.1841 144.98 53.2203 145.124 53.2927 145.233L58.5425 152.74C59.0252 153.428 58.9407 154.357 58.3373 154.96C55.1995 158.098 52.4962 161.622 50.2756 165.46C49.8532 166.196 48.9722 166.522 48.1877 166.232L39.5829 163.106C39.3053 163.01 39.0156 163.155 38.907 163.42L34.2365 176.249C34.14 176.515 34.2727 176.816 34.5503 176.925L43.1552 180.051C43.9396 180.34 44.4103 181.149 44.2654 181.982C43.7586 184.878 43.4931 187.847 43.4931 190.792C43.4931 192.252 43.5534 193.748 43.6862 195.221C43.7586 196.066 43.2276 196.826 42.419 197.043L33.5728 199.409C33.44 199.445 33.3193 199.529 33.259 199.65C33.1866 199.771 33.1745 199.915 33.2107 200.048L36.7468 213.239C36.783 213.372 36.8675 213.492 36.9881 213.553C37.1088 213.625 37.2537 213.637 37.3864 213.601L46.2205 211.236C47.0291 211.018 47.8739 211.417 48.236 212.177C50.1066 216.184 52.4962 219.937 55.3564 223.34C55.8995 223.992 55.8995 224.921 55.3685 225.573C55.2116 225.682 55.0426 225.754 54.8737 225.754ZM94.0722 222.146C93.4084 222.146 92.7446 222.121 92.0808 222.085C83.7294 221.554 76.066 217.753 70.4903 211.368C69.3076 210.017 68.2456 208.569 67.3163 207.048C64.6733 202.739 63.1164 197.803 62.7906 192.795C62.7665 192.457 63.0199 192.179 63.3578 192.155C63.6837 192.143 63.9733 192.385 63.9974 192.723C64.2992 197.538 65.8077 202.281 68.3421 206.42C69.2352 207.881 70.261 209.281 71.3954 210.572C76.7659 216.715 84.1398 220.372 92.1533 220.878C100.831 221.434 109.327 218.223 115.458 212.105C121.588 205.974 124.787 197.49 124.231 188.8C123.278 173.703 111.173 161.598 96.0755 160.645C86.2638 160.029 76.7418 164.217 70.5868 171.844C70.3817 172.098 69.9955 172.146 69.7421 171.941C69.4766 171.735 69.4403 171.349 69.6455 171.096C76.0418 163.155 85.938 158.798 96.1479 159.438C111.849 160.427 124.449 173.015 125.438 188.728C126.005 197.755 122.687 206.589 116.314 212.961C110.413 218.851 102.399 222.146 94.0722 222.146ZM63.7078 186.568C63.6716 186.568 63.6475 186.568 63.6112 186.556C63.2854 186.507 63.0561 186.194 63.1044 185.868C63.5147 183.225 64.2629 180.654 65.337 178.204C65.4698 177.902 65.8198 177.758 66.1336 177.89C66.4353 178.023 66.5801 178.373 66.4474 178.687C65.4215 181.04 64.6974 183.514 64.2992 186.049C64.2509 186.35 63.9975 186.568 63.7078 186.568Z" fill="#5C72B7"/>
<path d="M319.187 603.257C318.873 603.257 318.607 603.015 318.583 602.69C306.141 416.147 262.356 345.667 259.23 340.876H227.357C227.019 340.876 226.754 340.61 226.754 340.272C226.754 339.934 227.019 339.669 227.357 339.669H259.556C259.749 339.669 259.942 339.765 260.051 339.934C260.522 340.61 306.913 409.726 319.778 602.617C319.802 602.955 319.549 603.233 319.211 603.257C319.211 603.257 319.199 603.257 319.187 603.257Z" fill="white"/>
<path d="M154.98 598.526C154.92 598.526 154.859 598.514 154.787 598.502C154.473 598.393 154.292 598.055 154.401 597.742C183.486 508.543 177.488 298.901 177.415 296.801C177.403 296.464 177.669 296.186 177.995 296.186C178.296 296.174 178.61 296.439 178.622 296.765C178.683 298.877 184.705 508.724 155.547 598.128C155.463 598.369 155.234 598.526 154.98 598.526Z" fill="white"/>
<path d="M217.424 598.526H137.881C137.543 598.526 137.277 598.261 137.277 597.923C137.277 597.585 137.543 597.319 137.881 597.319H217.424C217.762 597.319 218.028 597.585 218.028 597.923C218.028 598.261 217.75 598.526 217.424 598.526Z" fill="white"/>
<path d="M372.624 603.257H303.121C302.783 603.257 302.518 602.991 302.518 602.653C302.518 602.315 302.783 602.05 303.121 602.05H372.624C372.961 602.05 373.227 602.315 373.227 602.653C373.227 602.991 372.961 603.257 372.624 603.257Z" fill="white"/>
<path d="M266.083 118.67C263.489 118.67 260.484 118.417 257.129 117.729C239.762 114.181 235.9 101.642 235.864 101.509C235.767 101.195 235.948 100.857 236.274 100.761C236.588 100.664 236.926 100.845 237.022 101.171C237.059 101.292 240.752 113.143 257.37 116.546C269.74 119.081 277.162 115.496 277.235 115.46C277.536 115.315 277.898 115.436 278.043 115.738C278.188 116.039 278.067 116.402 277.766 116.546C277.548 116.667 273.373 118.67 266.083 118.67Z" fill="white"/>
<path d="M440.581 337.992H360.459C359.131 337.992 358.045 336.906 358.045 335.578C358.045 334.25 359.131 333.164 360.459 333.164H440.581C441.909 333.164 442.995 334.25 442.995 335.578C442.995 336.906 441.909 337.992 440.581 337.992Z" fill="#FCD941"/>
<path d="M564.564 384.226L530.965 347.284C535.153 343.47 539.992 340.357 545.302 338.136C545.93 337.883 546.545 337.629 547.185 337.388C547.185 337.388 547.185 337.388 547.197 337.376C547.897 337.122 548.609 336.869 549.333 336.64L564.564 384.226Z" fill="white"/>
<path d="M589.158 340.755L564.562 384.214L545.301 338.124C545.928 337.871 546.544 337.617 547.183 337.376C547.183 337.376 547.183 337.376 547.195 337.364C552.602 335.36 558.455 334.262 564.562 334.262C573.493 334.262 581.892 336.616 589.146 340.731C589.146 340.743 589.158 340.755 589.158 340.755Z" fill="#FCD941"/>
<path d="M564.56 384.829C564.548 384.829 564.536 384.829 564.524 384.829C564.295 384.817 564.09 384.673 564.005 384.455L545.504 340.176C545.372 339.874 545.516 339.512 545.83 339.391C546.132 339.259 546.494 339.404 546.615 339.717L564.645 382.85L577.498 360.137C577.667 359.848 578.029 359.739 578.319 359.908C578.608 360.077 578.717 360.439 578.548 360.729L565.079 384.516C564.971 384.709 564.766 384.829 564.56 384.829Z" fill="#5C72B7"/>
<path d="M580.373 356.879C580.276 356.879 580.168 356.855 580.071 356.806C579.781 356.637 579.673 356.275 579.842 355.986L584.923 347.007C585.092 346.717 585.454 346.608 585.743 346.777C586.033 346.946 586.142 347.308 585.973 347.598L580.892 356.577C580.783 356.77 580.578 356.879 580.373 356.879Z" fill="#5C72B7"/>
<path d="M608.55 219.623L593.416 204.49C595.576 200.797 596.819 196.5 596.819 191.914C596.819 178.168 585.68 167.041 571.946 167.041C558.2 167.041 547.061 178.18 547.061 191.914C547.061 205.66 558.2 216.787 571.946 216.787C576.954 216.787 581.613 215.303 585.523 212.757L600.464 227.697C601.574 228.82 603.034 229.375 604.507 229.375C605.979 229.375 607.439 228.82 608.55 227.697C610.782 225.465 610.782 221.856 608.55 219.623ZM571.958 206.927C563.667 206.927 556.945 200.205 556.945 191.914C556.945 183.623 563.655 176.901 571.958 176.901C580.237 176.901 586.959 183.623 586.959 191.914C586.959 200.205 580.237 206.927 571.958 206.927Z" fill="#F16667"/>
<path d="M606.861 227.323C605.243 227.323 603.735 226.696 602.601 225.561L587.841 210.801C583.81 213.384 579.139 214.748 574.312 214.748C560.421 214.748 549.125 203.452 549.125 189.573C549.125 175.694 560.421 164.398 574.312 164.398C588.191 164.398 599.487 175.694 599.487 189.573C599.487 193.978 598.34 198.298 596.156 202.1L611.121 217.065C613.462 219.406 613.462 223.22 611.121 225.573C609.986 226.696 608.466 227.323 606.861 227.323ZM587.889 210.101C587.961 210.101 588.046 210.126 588.106 210.186L603.035 225.127C604.049 226.152 605.412 226.72 606.861 226.72C608.309 226.72 609.673 226.152 610.698 225.127C612.798 223.015 612.798 219.587 610.698 217.475L595.565 202.341C595.468 202.245 595.444 202.088 595.516 201.979C597.713 198.226 598.883 193.93 598.883 189.561C598.883 176.008 587.865 164.989 574.312 164.989C560.759 164.989 549.728 176.02 549.728 189.561C549.728 203.102 560.759 214.132 574.312 214.132C579.103 214.132 583.737 212.756 587.72 210.15C587.768 210.126 587.829 210.101 587.889 210.101ZM574.312 204.876C565.876 204.876 559.009 198.009 559.009 189.561C559.009 181.113 565.876 174.246 574.312 174.246C582.748 174.246 589.615 181.113 589.615 189.561C589.615 198.009 582.748 204.876 574.312 204.876ZM574.312 174.861C566.202 174.861 559.613 181.463 559.613 189.573C559.613 197.683 566.214 204.284 574.312 204.284C582.422 204.284 589.011 197.683 589.011 189.573C589.011 181.463 582.41 174.861 574.312 174.861Z" fill="#FCD941"/>
<path d="M197.971 629.12H169.574C167.57 629.12 165.953 627.502 165.953 625.499C165.953 623.496 167.57 621.878 169.574 621.878H197.971C199.974 621.878 201.591 623.496 201.591 625.499C201.591 627.502 199.962 629.12 197.971 629.12Z" fill="white"/>
<path d="M197.971 643.131H169.574C167.57 643.131 165.953 641.514 165.953 639.511C165.953 637.508 167.57 635.89 169.574 635.89H197.971C199.974 635.89 201.591 637.508 201.591 639.511C201.591 641.514 199.962 643.131 197.971 643.131Z" fill="white"/>
<path d="M421.779 634.117C421.731 634.117 421.683 634.117 421.622 634.117L401.166 633.272C399.163 633.187 397.618 631.498 397.703 629.506C397.787 627.503 399.465 625.934 401.468 626.043L421.924 626.887C423.927 626.972 425.472 628.662 425.388 630.653C425.315 632.596 423.71 634.117 421.779 634.117Z" fill="white"/>
<path d="M437.615 643.867C437.567 643.867 437.519 643.867 437.458 643.867L417.002 643.022C414.999 642.938 413.454 641.248 413.538 639.257C413.623 637.266 415.3 635.709 417.304 635.793L437.76 636.638C439.763 636.723 441.308 638.412 441.224 640.403C441.139 642.346 439.546 643.867 437.615 643.867Z" fill="white"/>
<path d="M309.506 173.124L338.132 211.984L332.279 219.792L309.506 173.124Z" fill="#F16667"/>
<path d="M373.916 227.07L417.109 236.495L414.225 243.435L373.916 227.07Z" fill="#F16667"/>
<path d="M251.061 298.732C228.71 298.732 205.322 295.474 187.086 290.49C182.307 289.186 177.854 287.75 173.871 286.242C173.557 286.121 173.4 285.771 173.521 285.457C173.642 285.143 173.992 284.986 174.306 285.107C178.252 286.604 182.657 288.028 187.412 289.319C219.623 298.117 267.933 301.52 297.959 290.984C298.273 290.876 298.623 291.045 298.732 291.359C298.84 291.672 298.672 292.022 298.358 292.131C285.131 296.765 268.404 298.732 251.061 298.732Z" fill="white"/>
<path d="M169.283 284.323C169.198 284.323 169.114 284.311 169.041 284.275C164.419 282.235 160.593 280.075 157.685 277.854C157.419 277.649 157.371 277.275 157.576 277.009C157.781 276.744 158.156 276.696 158.421 276.901C161.257 279.061 164.986 281.173 169.524 283.176C169.826 283.309 169.971 283.671 169.838 283.973C169.741 284.19 169.524 284.323 169.283 284.323Z" fill="white"/>
<path d="M322.338 235.855C322.109 235.855 321.891 235.722 321.783 235.505L299.178 185.481C299.046 185.179 299.178 184.817 299.48 184.684C299.782 184.552 300.144 184.684 300.277 184.986L322.881 235.01C323.014 235.312 322.881 235.674 322.579 235.807C322.507 235.843 322.422 235.855 322.338 235.855Z" fill="white"/>
<path d="M414.496 260.282C414.411 260.282 414.339 260.27 414.254 260.234L364.967 239.235C364.665 239.102 364.52 238.752 364.653 238.438C364.786 238.136 365.136 237.992 365.449 238.124L414.737 259.124C415.039 259.256 415.184 259.606 415.051 259.92C414.954 260.137 414.725 260.282 414.496 260.282Z" fill="white"/>
<path d="M466.131 197.538L539.495 119.563H594.31L519.015 198.057L466.131 197.538Z" fill="white"/>
<path d="M469.17 198.696L543.633 119.563H598.448L521.499 199.783L469.17 198.696Z" fill="#5C72B7"/>
<path d="M541.584 165.107C546.233 159.03 547.825 152.438 545.141 150.385C542.457 148.332 536.512 151.595 531.864 157.673C527.216 163.751 525.623 170.342 528.307 172.395C530.992 174.448 536.936 171.185 541.584 165.107Z" fill="white"/>
<path d="M329.456 654.488C329.456 661.234 323.977 666.713 317.231 666.713C310.533 666.713 305.09 661.331 305.018 654.645C305.018 654.597 305.018 654.548 305.018 654.488C305.018 648.816 308.892 644.037 314.141 642.661C315.131 642.395 316.169 642.263 317.231 642.263C323.989 642.263 329.456 647.742 329.456 654.488Z" fill="white"/>
<path d="M519.764 362.683C519.668 362.683 519.583 362.659 519.499 362.623C519.197 362.478 519.076 362.116 519.221 361.815C522.033 356.142 525.847 351.098 530.541 346.837C534.838 342.927 539.726 339.802 545.048 337.581C545.663 337.328 546.267 337.086 546.882 336.857C546.906 336.845 546.93 336.833 546.967 336.821C547.679 336.555 548.403 336.314 549.139 336.084C554.099 334.491 559.289 333.683 564.551 333.683C573.276 333.683 581.893 335.94 589.436 340.224C589.725 340.393 589.822 340.755 589.665 341.045C589.508 341.334 589.134 341.431 588.844 341.274C581.483 337.098 573.083 334.89 564.551 334.89C559.421 334.89 554.353 335.674 549.513 337.231C548.813 337.448 548.137 337.69 547.462 337.931C547.437 337.943 547.413 337.955 547.389 337.967C546.762 338.209 546.146 338.45 545.531 338.703C540.329 340.876 535.574 343.917 531.374 347.743C526.788 351.906 523.059 356.83 520.32 362.37C520.211 362.563 519.994 362.683 519.764 362.683Z" fill="#5C72B7"/>
<path d="M514.615 384.829C514.277 384.829 514.012 384.564 514.012 384.226C514.012 378.409 514.989 372.712 516.92 367.294C517.029 366.98 517.379 366.811 517.693 366.931C518.006 367.04 518.175 367.39 518.055 367.704C516.172 373.002 515.219 378.566 515.219 384.238C515.219 384.552 514.941 384.829 514.615 384.829Z" fill="#5C72B7"/>
<path d="M564.562 434.769C540.824 434.769 520.018 417.933 515.106 394.737C515.033 394.412 515.251 394.086 515.576 394.025C515.902 393.965 516.228 394.158 516.288 394.496C521.08 417.137 541.379 433.562 564.562 433.562C591.777 433.562 613.911 411.428 613.911 384.214C613.911 370.938 608.709 358.484 599.271 349.143C599.03 348.913 599.03 348.527 599.271 348.286C599.513 348.044 599.887 348.044 600.128 348.286C609.795 357.856 615.117 370.625 615.117 384.214C615.105 412.092 592.429 434.769 564.562 434.769Z" fill="#5C72B7"/>
<path d="M516.182 241.504H435.033C434.695 241.504 434.43 241.238 434.43 240.901C434.43 240.563 434.695 240.297 435.033 240.297H516.182C516.52 240.297 516.785 240.563 516.785 240.901C516.785 241.238 516.508 241.504 516.182 241.504Z" fill="#FCD941"/>
<path d="M242.065 598.526H227.365C227.027 598.526 226.762 598.261 226.762 597.923C226.762 597.585 227.027 597.319 227.365 597.319H242.065C242.402 597.319 242.668 597.585 242.668 597.923C242.668 598.261 242.39 598.526 242.065 598.526Z" fill="white"/>
<path d="M399.342 603.257H384.172C383.834 603.257 383.568 602.991 383.568 602.653C383.568 602.315 383.834 602.05 384.172 602.05H399.342C399.68 602.05 399.945 602.315 399.945 602.653C399.945 602.991 399.68 603.257 399.342 603.257Z" fill="white"/>
</svg>